<?xml version="1.0" standalone="no"?>
<!DOCTYPE svg PUBLIC "-//W3C//DTD SVG 20010904//EN"
 "http://www.w3.org/TR/2001/REC-SVG-20010904/DTD/svg10.dtd">
<svg version="1.0" xmlns="http://www.w3.org/2000/svg"
 width="300.000000pt" height="149.000000pt" viewBox="0 0 300.000000 149.000000"
 preserveAspectRatio="xMidYMid meet">
<metadata>
Created by potrace 1.10, written by Peter Selinger 2001-2011
</metadata>
<g transform="translate(0.000000,149.000000) scale(0.050000,-0.050000)"
fill="#d4af37" stroke="none">
<path d="M1010 2907 c-75 -11 -247 -65 -300 -94 -22 -12 -47 -22 -55 -22 -9
-1 -70 -45 -136 -99 -253 -205 -398 -507 -400 -838 0 -60 -13 -121 -30 -143
-49 -65 12 -211 88 -211 24 0 24 6 -4 37 -18 20 -33 42 -33 50 0 73 211 -151
237 -252 25 -98 8 -140 -29 -73 -26 47 -27 47 -27 4 -1 -62 -35 -75 -94 -36
-44 29 -50 45 -41 102 15 89 -33 93 -64 6 -22 -65 -13 -107 19 -87 35 21 19
-25 -21 -61 -54 -49 -50 -85 20 -180 33 -44 75 -111 95 -150 19 -38 40 -74 45
-80 6 -5 23 -46 38 -90 15 -44 40 -95 56 -113 33 -38 105 -298 106 -381 0 -51
31 -92 53 -69 6 5 1 58 -12 117 -39 178 -47 262 -25 248 11 -6 36 -98 55 -203
26 -147 43 -195 73 -211 57 -31 66 -9 40 97 -43 175 -53 311 -23 301 28 -9 80
-232 82 -351 0 -36 9 -66 19 -67 161 -23 284 69 218 161 -23 34 -45 85 -48
115 -4 30 -26 67 -49 82 -92 62 -48 325 69 414 53 40 68 37 67 -15 -1 -25 9
-94 21 -155 12 -61 16 -175 9 -255 -15 -173 -24 -170 211 -52 l184 93 -12 72
c-7 40 -18 103 -25 141 -7 38 -38 105 -70 148 -79 109 -75 234 6 203 15 -6 53
-60 84 -120 80 -153 114 -147 200 36 112 236 103 514 -17 514 -15 0 -59 -52
-98 -116 -38 -64 -89 -133 -111 -153 -23 -21 -41 -49 -41 -64 0 -24 -92 -39
-200 -31 -386 26 -494 46 -513 95 -17 43 -43 35 -51 -14 -3 -24 -18 -48 -32
-52 -24 -8 -19 95 7 136 11 19 550 332 674 393 122 59 123 59 224 -24 143
-118 194 -57 221 268 11 120 16 133 51 111 17 -10 20 -54 10 -148 -16 -166 -5
-194 80 -210 88 -16 95 -118 21 -306 -106 -270 -85 -344 66 -231 105 80 120
101 198 296 325 811 -269 1641 -1086 1517z m377 -174 c42 -15 84 -38 92 -52 9
-13 21 -21 28 -18 6 4 32 -11 57 -33 25 -21 52 -39 60 -40 7 0 30 -16 50 -35
20 -20 76 -72 126 -115 49 -44 82 -80 72 -80 -10 0 7 -21 37 -48 40 -34 48
-50 28 -58 -20 -8 -18 -11 6 -12 44 -3 60 -86 69 -352 7 -217 6 -219 -30 -172
-28 36 -39 41 -48 20 -6 -15 -12 -1 -14 32 -2 51 -5 54 -18 20 -20 -51 -38 -6
-46 116 -3 52 -12 72 -30 65 -23 -9 -35 13 -28 54 1 8 -5 14 -13 13 -55 -9
-93 4 -65 21 23 15 20 18 -16 16 -46 -4 -150 -95 -107 -95 12 0 23 -10 23 -21
0 -12 -8 -16 -19 -10 -20 13 -47 -22 -54 -68 -9 -58 -64 -75 -228 -68 -101 4
-156 -1 -149 -13 11 -18 -15 -29 -55 -22 -8 1 -15 -8 -15 -19 0 -12 -8 -16
-19 -10 -10 6 -30 -5 -45 -26 -14 -20 -41 -35 -60 -32 -19 3 -33 -4 -30 -15 2
-12 -7 -25 -21 -30 -14 -5 -25 1 -25 14 0 12 -9 17 -19 11 -11 -7 -14 -26 -8
-42 8 -21 2 -26 -21 -17 -18 7 -32 2 -32 -10 0 -13 -20 -32 -45 -44 -25 -11
-94 -47 -154 -79 -100 -54 -111 -56 -124 -24 -7 19 -46 70 -85 113 -40 42 -72
86 -72 98 0 11 -6 15 -12 8 -31 -30 -73 48 -52 95 12 26 21 110 22 186 0 157
73 343 150 384 39 21 40 22 2 12 -37 -10 -36 -8 5 27 25 21 45 48 45 60 0 12
11 20 24 17 14 -3 34 15 45 40 11 25 37 45 57 45 20 0 31 9 25 19 -16 25 63
67 93 49 13 -8 17 -5 9 7 -18 30 36 68 75 53 22 -8 32 -4 28 13 -6 28 153 67
200 49 14 -5 21 -1 14 10 -19 30 227 24 317 -7z m-967 -1708 c0 -39 15 -88 33
-109 32 -34 31 -38 -5 -66 -74 -56 -92 -38 -85 80 7 108 -7 142 -31 78 -7 -17
-12 -53 -12 -80 0 -61 -35 -63 -44 -3 -10 59 42 171 82 181 51 11 62 -4 62
-81z m211 -87 c9 -14 19 -15 27 -3 18 30 142 5 142 -28 0 -16 -20 -49 -45 -74
-25 -25 -48 -65 -51 -89 -11 -76 -53 -134 -99 -139 -27 -3 -43 5 -40 20 3 14
-11 22 -30 19 -48 -8 -25 107 38 183 52 62 60 104 22 120 -18 7 -18 10 -1 11
13 1 30 -8 37 -20z"/>
<path d="M3733 2837 c-5 -22 -1 -32 11 -24 12 7 17 0 12 -15 -5 -15 -29 -27
-53 -26 -34 2 -39 -3 -22 -23 24 -29 77 -18 82 18 2 13 4 32 6 43 1 11 8 30
16 42 7 12 1 21 -14 21 -16 0 -32 -16 -38 -36z"/>
<path d="M3687 2451 c0 -16 7 -25 16 -19 10 6 17 -3 17 -20 0 -16 8 -35 18
-41 10 -6 13 8 7 32 -9 35 -5 41 23 31 21 -9 29 -6 21 8 -7 11 -26 16 -41 10
-15 -6 -28 -2 -28 9 0 10 -7 19 -17 19 -9 0 -16 -13 -16 -29z"/>
<path d="M5249 2399 c-24 -40 -21 -132 6 -157 24 -23 17 67 -7 96 -4 4 2 24
13 45 21 39 11 52 -12 16z"/>
<path d="M2380 1310 l0 -510 109 0 110 0 5 304 6 305 50 -95 c34 -64 63 -94
90 -94 27 0 56 30 90 94 l50 95 6 -305 5 -304 110 0 109 0 0 510 0 510 -109 0
-109 0 -75 -122 c-83 -134 -73 -136 -172 30 -54 92 -54 92 -165 92 l-110 0 0
-510z"/>
<path d="M3170 1310 l0 -510 265 0 265 0 0 110 0 110 -160 0 -160 0 0 90 0 90
130 0 130 0 0 112 0 111 -130 -6 -130 -7 0 95 0 95 160 0 160 0 0 110 0 110
-265 0 -265 0 0 -510z"/>
<path d="M3780 1710 l0 -110 100 0 100 0 0 -400 0 -400 105 0 105 0 -7 400 -7
400 102 0 102 0 0 110 0 110 -300 0 -300 0 0 -110z"/>
<path d="M4534 1724 l-94 -95 0 -415 0 -414 110 0 110 0 0 200 0 200 90 0 90
0 0 -200 0 -200 110 0 110 0 0 416 0 416 -96 94 c-143 141 -290 140 -430 -2z
m282 -148 c68 -68 29 -167 -66 -167 -90 1 -90 1 -90 72 0 81 29 119 90 119 23
0 53 -11 66 -24z"/>
<path d="M5120 1310 l0 -510 110 0 110 0 0 200 0 200 130 0 130 0 0 112 0 111
-130 -6 -130 -7 0 95 0 95 160 0 160 0 0 110 0 110 -270 0 -270 0 0 -510z"/>
<path d="M5720 1310 l0 -510 110 0 110 0 0 510 0 510 -110 0 -110 0 0 -510z"/>
<path d="M882 678 c-42 -121 -17 -214 39 -147 32 39 37 192 6 203 -12 4 -32
-21 -45 -56z"/>
</g>
</svg>
