<?xml version="1.0" standalone="no"?>
<!DOCTYPE svg PUBLIC "-//W3C//DTD SVG 20010904//EN"
 "http://www.w3.org/TR/2001/REC-SVG-20010904/DTD/svg10.dtd">
<svg version="1.0" xmlns="http://www.w3.org/2000/svg"
 width="378.000000pt" height="129.000000pt" viewBox="0 0 378.000000 129.000000"
 preserveAspectRatio="xMidYMid meet">

<g transform="translate(0.000000,129.000000) scale(0.100000,-0.100000)"
fill="#000000" stroke="none">
<path d="M385 1256 c-146 -33 -261 -140 -311 -287 -14 -40 -24 -94 -24 -125 0
-29 -7 -69 -16 -88 -16 -33 -16 -35 6 -63 13 -15 20 -20 17 -10 -10 28 16 20
50 -15 33 -35 53 -75 53 -110 0 -17 -2 -18 -15 -8 -10 9 -15 9 -15 1 0 -6 -11
-11 -25 -11 -26 0 -50 32 -41 56 3 8 3 14 0 14 -10 0 -21 -45 -12 -51 6 -4 4
-16 -6 -32 -19 -28 -9 -63 30 -107 12 -14 32 -50 44 -80 12 -30 27 -64 35 -76
18 -28 45 -121 45 -155 0 -15 5 -31 12 -35 8 -5 9 2 5 23 -11 58 -20 138 -13
132 3 -3 15 -43 27 -90 19 -77 33 -104 49 -94 4 2 1 39 -7 81 -13 70 -12 97 3
81 3 -3 13 -41 21 -84 8 -43 18 -82 22 -86 9 -9 59 8 83 29 14 13 14 19 3 42
-7 15 -18 38 -25 52 -6 14 -18 37 -26 52 -26 47 9 158 50 158 21 0 36 -63 36
-153 0 -48 3 -87 6 -87 3 0 39 16 80 36 57 28 74 41 74 58 0 35 -20 99 -46
149 -46 86 -4 109 47 27 17 -28 36 -49 43 -47 6 2 26 32 44 66 34 66 44 151
22 192 -17 30 -36 23 -69 -28 -47 -72 -74 -99 -107 -106 -45 -9 -236 12 -261
28 -28 19 -31 19 -36 -2 -4 -17 -4 -17 -12 0 -14 32 24 66 169 148 165 95 181
100 223 65 56 -47 74 -33 95 78 7 36 16 66 20 66 5 0 8 -27 8 -59 0 -57 1 -60
35 -80 43 -25 45 -48 10 -146 -29 -81 -31 -105 -10 -105 33 0 91 69 117 137
65 170 64 294 -2 423 -33 65 -137 161 -216 200 -56 29 -80 34 -148 37 -45 1
-108 -4 -141 -11z m-203 -844 c14 -27 -1 -48 -27 -38 -13 5 -15 14 -9 53 8 60
18 77 22 38 1 -16 8 -40 14 -53z m-47 19 c-7 -45 -25 -56 -25 -15 0 27 18 69
27 61 3 -3 2 -24 -2 -46z"/>
<path d="M1050 695 l0 -245 50 0 49 0 3 148 3 147 28 -47 c15 -27 34 -48 42
-48 8 0 27 21 42 48 l28 47 3 -147 3 -148 49 0 50 0 0 245 0 245 -49 0 -50 0
-37 -61 c-42 -67 -37 -68 -86 15 -27 45 -29 46 -78 46 l-50 0 0 -245z"/>
<path d="M1430 695 l0 -245 130 0 130 0 0 50 0 50 -80 0 -80 0 0 45 0 45 60 0
60 0 0 50 0 50 -60 0 -60 0 0 50 0 50 80 0 80 0 0 50 0 50 -130 0 -130 0 0
-245z"/>
<path d="M1730 890 l0 -50 45 0 45 0 0 -195 0 -195 50 0 50 0 0 195 0 195 45
0 45 0 0 50 0 50 -140 0 -140 0 0 -50z"/>
<path d="M2092 897 l-42 -43 0 -202 0 -202 50 0 50 0 0 95 0 95 45 0 45 0 0
-95 0 -95 50 0 50 0 0 202 0 202 -42 43 c-41 41 -45 43 -103 43 -58 0 -62 -2
-103 -43z m136 -69 c7 -7 12 -29 12 -50 l0 -38 -45 0 -45 0 0 38 c0 43 14 62
45 62 12 0 26 -5 33 -12z"/>
<path d="M2380 695 l0 -245 50 0 50 0 0 95 0 95 60 0 60 0 0 50 0 50 -60 0
-60 0 0 50 0 50 75 0 75 0 0 50 0 50 -125 0 -125 0 0 -245z"/>
<path d="M2670 695 l0 -245 50 0 50 0 0 245 0 245 -50 0 -50 0 0 -245z"/>
<path d="M2840 696 l0 -246 50 0 49 0 3 116 3 117 46 -114 47 -114 51 -3 51
-3 0 245 0 246 -50 0 -49 0 -3 -116 -3 -117 -46 114 -46 114 -52 3 -51 3 0
-245z"/>
<path d="M3170 695 l0 -245 50 0 50 0 0 95 0 95 60 0 60 0 0 50 0 50 -60 0
-60 0 0 50 0 50 75 0 75 0 0 50 0 50 -125 0 -125 0 0 -245z"/>
<path d="M3470 890 l0 -50 45 0 45 0 0 -195 0 -195 50 0 50 0 0 195 0 195 45
0 45 0 0 50 0 50 -140 0 -140 0 0 -50z"/>
<path d="M382 318 c-16 -16 -16 -81 0 -76 16 6 29 57 20 75 -6 10 -11 10 -20
1z"/>
</g>
</svg>
