<?xml version="1.0" standalone="no"?>
<!DOCTYPE svg PUBLIC "-//W3C//DTD SVG 20010904//EN"
 "http://www.w3.org/TR/2001/REC-SVG-20010904/DTD/svg10.dtd">
<svg version="1.0" xmlns="http://www.w3.org/2000/svg"
 width="378.000000pt" height="129.000000pt" viewBox="0 0 378.000000 129.000000"
 preserveAspectRatio="xMidYMid meet">

<g transform="translate(0.000000,129.000000) scale(0.100000,-0.100000)"
fill="#000000" stroke="none">
<path d="M700 680 l0 -290 60 0 60 0 0 178 0 177 33 -55 c45 -75 64 -75 104
-3 l32 58 1 -177 0 -178 60 0 60 0 0 290 0 290 -60 0 -59 0 -42 -70 c-23 -38
-43 -70 -44 -70 -1 0 -21 32 -44 70 l-42 70 -59 0 -60 0 0 -290z"/>
<path d="M1150 680 l0 -290 150 0 150 0 0 60 0 60 -90 0 -90 0 0 55 0 55 70 0
70 0 0 60 0 60 -70 0 -70 0 0 55 0 55 90 0 90 0 0 60 0 60 -150 0 -150 0 0
-290z"/>
<path d="M1510 910 l0 -60 55 0 55 0 0 -230 0 -230 60 0 60 0 0 230 0 230 55
0 55 0 0 60 0 60 -170 0 -170 0 0 -60z"/>
<path d="M1942 917 l-52 -53 0 -237 0 -237 60 0 60 0 0 115 0 115 55 0 55 0 0
-115 0 -115 60 0 60 0 0 238 0 238 -53 52 -53 52 -70 0 -70 0 -52 -53z m166
-79 c7 -7 12 -31 12 -55 l0 -43 -55 0 -55 0 0 43 c0 24 5 48 12 55 16 16 70
16 86 0z"/>
<path d="M2570 680 l0 -290 60 0 60 0 0 115 0 115 70 0 70 0 0 60 0 60 -70 0
-70 0 0 55 0 55 90 0 90 0 0 60 0 60 -150 0 -150 0 0 -290z"/>
<path d="M2920 680 l0 -290 60 0 60 0 0 290 0 290 -60 0 -60 0 0 -290z"/>
</g>
</svg>
